# xmcd
#
# Track frame offsets: 
#        150
#        13404
#        27888
#        40779
#        55151
#        69350
#        82033
#        96364
#        109592
#        124693
#        138029
#        150246
#
# Disc length: 2132 seconds
#
# Revision: 2
# Processed by: cddbd v1.5.2PL0 Copyright (c) Steve Scherf et al.
# Submitted via: ExactAudioCopy v0.95a5
#
DISCID=9008520c
DTITLE=Billy Bob Thornton and The Boxmasters - Modbilly: Disk One: Our
DTITLE=s
DYEAR=2009
DGENRE=Country
TTITLE0=Heartbreakin' Wreck
TTITLE1=Reasons For Livin'
TTITLE2=Hollow Walls
TTITLE3=Turn It Over
TTITLE4=I Don't Wanna Know
TTITLE5=That's Why Tammy Has My Car
TTITLE6=Goin' Home
TTITLE7=New Mexico
TTITLE8=Two Weeks Notice
TTITLE9=Every King Wears A Crown
TTITLE10=You Crossed The Line
TTITLE11=I Never Let You Cry
EXTD=
EXTT0=
EXTT1=
EXTT2=
EXTT3=
EXTT4=
EXTT5=
EXTT6=
EXTT7=
EXTT8=
EXTT9=
EXTT10=
EXTT11=
PLAYORDER=
